<?xml version="1.0" encoding="UTF-8" standalone="no"?> <svg width="64" height="64" viewBox="0 0 64 64" fill="none" xmlns="http://www.w3.org/2000/svg">
<path d="M59.8899 39.5799C58.9989 38.1825 57.828 36.9847 56.4511 36.0622C55.0743 35.1397 53.5212 34.5124 51.8899 34.2199L49.3699 33.7799C46.7612 33.3284 44.0775 33.6448 41.6453 34.6905C39.213 35.7362 37.1371 37.4661 35.6699 39.6699C35.6121 39.752 35.5378 39.8211 35.4516 39.8728C35.3655 39.9244 35.2696 39.9575 35.1699 39.9699C35.0708 39.979 34.9709 39.9677 34.8763 39.9367C34.7817 39.9058 34.6945 39.8558 34.6199 39.7899L24.4599 30.3299C24.2954 30.1772 24.1683 29.9885 24.0885 29.7787C24.0087 29.5688 23.9784 29.3434 23.9999 29.1199C24.015 28.8923 24.0846 28.6717 24.203 28.4768C24.3214 28.2818 24.485 28.1183 24.6799 27.9999C26.2676 27.0074 27.5063 25.5443 28.2232 23.8146C28.9402 22.0849 29.0999 20.1746 28.6799 18.3499L27.9999 15.5599C27.5165 13.5032 26.5413 11.5945 25.158 9.99758C23.7748 8.40063 22.0247 7.16311 20.0581 6.39119C18.0914 5.61927 15.9668 5.33601 13.8666 5.56569C11.7664 5.79537 9.75326 6.53115 7.99991 7.7099L7.86991 7.7999C5.40926 9.44943 3.63223 11.9373 2.86991 14.7999C0.209914 24.6899 7.05991 38.3999 19.4499 48.1099C27.9999 54.8399 37.8899 58.5399 46.1299 58.5399C49.4087 58.6142 52.657 57.8973 55.5999 56.4499C57.0059 55.6854 58.2399 54.6404 59.2256 53.3795C60.2112 52.1187 60.9274 50.6688 61.3299 49.1199C61.7631 47.5167 61.8588 45.8409 61.6109 44.1988C61.363 42.5567 60.777 40.9839 59.8899 39.5799V39.5799ZM58.8899 48.4599C58.5767 49.6766 58.0176 50.8163 57.2471 51.8086C56.4767 52.801 55.5111 53.625 54.4099 54.2299C46.2399 58.4999 32.4899 55.2299 20.9699 46.1499C9.44991 37.0699 2.86991 24.3899 5.20991 15.4099C5.8268 13.1417 7.24877 11.1758 9.20991 9.8799L9.38991 9.7499C11.1191 8.56689 13.1648 7.93263 15.2599 7.9299C16.5955 7.93292 17.9185 8.18735 19.1599 8.6799C20.7597 9.29873 22.1824 10.3022 23.3021 11.6016C24.4218 12.901 25.2042 14.4563 25.5799 16.1299L26.2299 18.9399C26.5385 20.2623 26.4257 21.6482 25.9075 22.9034C25.3893 24.1586 24.4915 25.2203 23.3399 25.9399C22.8259 26.261 22.3927 26.6961 22.0738 27.2114C21.7548 27.7268 21.5588 28.3086 21.5008 28.9119C21.4428 29.5152 21.5244 30.1237 21.7392 30.6904C21.9541 31.2571 22.2965 31.7667 22.7399 32.1799L32.8799 41.6399C33.2165 41.9566 33.6182 42.1959 34.057 42.341C34.4957 42.4861 34.9609 42.5335 35.4199 42.4799C35.8802 42.4263 36.3234 42.2733 36.7188 42.0316C37.1142 41.7899 37.4524 41.4652 37.7099 41.0799C38.9115 39.2813 40.6096 37.8703 42.5977 37.0182C44.5859 36.1661 46.7788 35.9096 48.9099 36.2799L51.4199 36.7099C52.7145 36.9352 53.9477 37.4282 55.0407 38.1575C56.1338 38.8868 57.0625 39.8362 57.7676 40.9451C58.4726 42.0539 58.9384 43.2977 59.1351 44.5969C59.3318 45.8961 59.2551 47.2221 58.9099 48.4899L58.8899 48.4599Z" fill="black"/>
<path d="M35 5.25C41.2973 5.2553 47.3351 7.75922 51.7879 12.2121C56.2408 16.6649 58.7447 22.7027 58.75 29C58.75 29.3315 58.8817 29.6495 59.1161 29.8839C59.3505 30.1183 59.6685 30.25 60 30.25C60.3315 30.25 60.6495 30.1183 60.8839 29.8839C61.1183 29.6495 61.25 29.3315 61.25 29C61.2394 22.0413 58.4704 15.3707 53.5499 10.4501C48.6293 5.52959 41.9587 2.76058 35 2.75C34.6685 2.75 34.3505 2.8817 34.1161 3.11612C33.8817 3.35054 33.75 3.66848 33.75 4C33.75 4.33152 33.8817 4.64946 34.1161 4.88388C34.3505 5.1183 34.6685 5.25 35 5.25V5.25Z" fill="black"/>
<path d="M35 13.2C39.1888 13.2052 43.2045 14.8716 46.1664 17.8335C49.1284 20.7954 50.7947 24.8112 50.8 29C50.8 29.3315 50.9317 29.6494 51.1661 29.8838C51.4005 30.1183 51.7185 30.25 52.05 30.25C52.3815 30.25 52.6995 30.1183 52.9339 29.8838C53.1683 29.6494 53.3 29.3315 53.3 29C53.2947 24.1481 51.365 19.4965 47.9342 16.0657C44.5034 12.635 39.8518 10.7052 35 10.7C34.6685 10.7 34.3505 10.8316 34.1161 11.0661C33.8817 11.3005 33.75 11.6184 33.75 11.95C33.75 12.2815 33.8817 12.5994 34.1161 12.8338C34.3505 13.0683 34.6685 13.2 35 13.2V13.2Z" fill="black"/>
<path d="M35 21.1599C37.0785 21.1626 39.0711 21.9894 40.5408 23.4591C42.0105 24.9288 42.8374 26.9214 42.84 28.9999C42.84 29.3314 42.9717 29.6494 43.2061 29.8838C43.4405 30.1182 43.7585 30.2499 44.09 30.2499C44.4215 30.2499 44.7395 30.1182 44.9739 29.8838C45.2083 29.6494 45.34 29.3314 45.34 28.9999C45.3374 26.2584 44.2471 23.6299 42.3086 21.6914C40.37 19.7528 37.7415 18.6626 35 18.6599C34.6685 18.6599 34.3505 18.7916 34.1161 19.026C33.8817 19.2605 33.75 19.5784 33.75 19.9099C33.75 20.2414 33.8817 20.5594 34.1161 20.7938C34.3505 21.0282 34.6685 21.1599 35 21.1599V21.1599Z" fill="black"/>
</svg>
