<svg width="47" height="65" viewBox="0 0 47 65" fill="none" xmlns="http://www.w3.org/2000/svg">
<path d="M43.2347 21.9043V13.5212C43.2347 9.93514 41.9662 6.49597 39.7083 3.96026C37.4503 1.42455 34.3879 0 31.1947 0L15.871 0C12.6795 0.00649873 9.62046 1.43313 7.36377 3.96744C5.10707 6.50174 3.83671 9.93713 3.83093 13.5212V21.9043H0V48.7746C-2.17996e-06 50.9074 0.374432 53.0193 1.10188 54.9895C1.82934 56.9596 2.89553 58.7494 4.23948 60.2564C5.58342 61.7634 7.17875 62.958 8.9342 63.772C10.6896 64.5859 12.5708 65.0032 14.47 65H32.5519C34.4501 65.0032 36.3301 64.5857 38.0844 63.7715C39.8386 62.9572 41.4325 61.7622 42.7747 60.2549C44.1169 58.7476 45.181 56.9576 45.9061 54.9876C46.6311 53.0176 47.0029 50.9062 47 48.7746V21.9043H43.2347ZM25.8752 43.5874V53.1505C25.8752 53.8547 25.6261 54.53 25.1827 55.0279C24.7393 55.5259 24.138 55.8056 23.5109 55.8056C22.8839 55.8056 22.2826 55.5259 21.8392 55.0279C21.3958 54.53 21.1467 53.8547 21.1467 53.1505V43.5874C19.9272 42.9789 18.9307 41.9184 18.3242 40.5835C17.7176 39.2486 17.5378 37.7202 17.8147 36.2542C18.0916 34.7882 18.8086 33.4734 19.8455 32.5301C20.8824 31.5867 22.1764 31.0719 23.5109 31.0719C24.8454 31.0719 26.1394 31.5867 27.1764 32.5301C28.2133 33.4734 28.9302 34.7882 29.2072 36.2542C29.4841 37.7202 29.3043 39.2486 28.6977 40.5835C28.0912 41.9184 27.0947 42.9789 25.8752 43.5874ZM36.6674 21.9043H10.3982V13.5212C10.3981 11.9039 10.9657 10.3517 11.9779 9.20117C12.99 8.05067 14.3653 7.3946 15.8053 7.37519H31.129C32.5805 7.37519 33.9725 8.02271 34.9988 9.17531C36.0252 10.3279 36.6018 11.8912 36.6018 13.5212L36.6674 21.9043Z" fill="white"/>
</svg>
