<svg width="47" height="65" viewBox="0 0 47 65" fill="none" xmlns="http://www.w3.org/2000/svg">
<g clip-path="url(#clip0_3_19)">
<path d="M31.8395 29.1338C34.8665 27.3521 37.2085 24.6609 38.5081 21.4709C39.8078 18.2808 39.9938 14.7669 39.0379 11.465C38.082 8.16303 36.0366 5.25429 33.2136 3.18232C30.3906 1.11035 26.9449 -0.0111542 23.402 -0.0111542C19.8591 -0.0111542 16.4134 1.11035 13.5904 3.18232C10.7674 5.25429 8.72198 8.16303 7.76607 11.465C6.81016 14.7669 6.99622 18.2808 8.29588 21.4709C9.59553 24.6609 11.9375 27.3521 14.9645 29.1338C10.511 30.7867 6.6836 33.714 3.99256 37.5256C1.30151 41.3372 -0.125397 45.8522 -0.0980015 50.4686V65.1185H47V50.3501C46.9949 45.7427 45.542 41.2457 42.8342 37.4563C40.1264 33.6668 36.2918 30.7642 31.8395 29.1338Z" fill="white"/>
</g>
<defs>
<clipPath id="clip0_3_19">
<rect width="47" height="65" fill="white"/>
</clipPath>
</defs>
</svg>
