<svg width="22" height="27" viewBox="0 0 22 27" fill="none" xmlns="http://www.w3.org/2000/svg">
<path d="M20.21 9V5.59C20.2074 4.13212 19.627 2.7347 18.5962 1.70383C17.5653 0.672949 16.1679 0.0926398 14.71 0.0899963H7.71C6.25131 0.0899963 4.85237 0.669478 3.82092 1.70093C2.78947 2.73238 2.21 4.13131 2.21 5.59V9H0.489998V20C0.488683 20.8676 0.658432 21.7269 0.989525 22.5288C1.32062 23.3307 1.80656 24.0594 2.41956 24.6734C3.03255 25.2873 3.76058 25.7744 4.56198 26.1067C5.36338 26.439 6.22243 26.61 7.09 26.61H15.35C17.1031 26.61 18.7844 25.9136 20.024 24.674C21.2636 23.4344 21.96 21.7531 21.96 20V9H20.21ZM12.27 17.83V21.71C12.27 21.9964 12.1562 22.2711 11.9537 22.4737C11.7511 22.6762 11.4764 22.79 11.19 22.79C10.9036 22.79 10.6289 22.6762 10.4263 22.4737C10.2238 22.2711 10.11 21.9964 10.11 21.71V17.83C9.5529 17.5825 9.09772 17.1511 8.82064 16.6081C8.54356 16.0651 8.4614 15.4434 8.58791 14.8471C8.71442 14.2508 9.04192 13.716 9.5156 13.3322C9.98928 12.9485 10.5804 12.7391 11.19 12.7391C11.7996 12.7391 12.3907 12.9485 12.8644 13.3322C13.3381 13.716 13.6656 14.2508 13.7921 14.8471C13.9186 15.4434 13.8364 16.0651 13.5594 16.6081C13.2823 17.1511 12.8271 17.5825 12.27 17.83ZM17.21 9H5.21V5.59C5.21 4.92696 5.47339 4.29108 5.94223 3.82224C6.41107 3.35339 7.04696 3.09 7.71 3.09H14.71C15.373 3.09 16.0089 3.35339 16.4778 3.82224C16.9466 4.29108 17.21 4.92696 17.21 5.59V9Z" fill="white"/>
</svg>
