<svg width="20" height="28" viewBox="0 0 20 28" fill="none" xmlns="http://www.w3.org/2000/svg">
<path d="M13.64 12.86C14.8789 12.1081 15.8379 10.9715 16.3704 9.62361C16.903 8.27575 16.98 6.79068 16.5896 5.39499C16.1992 3.9993 15.3629 2.76964 14.2083 1.89369C13.0537 1.01774 11.6443 0.543594 10.195 0.543594C8.74574 0.543594 7.33627 1.01774 6.18169 1.89369C5.02711 2.76964 4.19082 3.9993 3.80044 5.39499C3.41005 6.79068 3.48701 8.27575 4.01957 9.62361C4.55214 10.9715 5.51105 12.1081 6.75 12.86C4.93323 13.5596 3.3721 14.7951 2.27372 16.4025C1.17534 18.0099 0.591618 19.9132 0.599996 21.86V28H19.79V21.82C19.7889 19.8803 19.2008 17.9864 18.1032 16.3872C17.0055 14.788 15.4496 13.5584 13.64 12.86Z" fill="white"/>
</svg>
