<svg width="8" height="9" viewBox="0 0 8 9" fill="none" xmlns="http://www.w3.org/2000/svg">
<g clip-path="url(#clip0_643_2434)">
<path d="M6.88013 3.09353L5.01625 2.82265L4.18304 1.13348C4.16028 1.08723 4.12284 1.04979 4.0766 1.02704C3.96061 0.969776 3.81966 1.01749 3.76166 1.13348L2.92846 2.82265L1.06457 3.09353C1.01319 3.10088 0.966202 3.1251 0.930231 3.16181C0.886744 3.2065 0.862781 3.26664 0.863607 3.32899C0.864433 3.39135 0.889981 3.45083 0.934636 3.49435L2.28318 4.80913L1.96458 6.66568C1.95711 6.70887 1.96189 6.75328 1.97838 6.79389C1.99486 6.8345 2.0224 6.86968 2.05786 6.89543C2.09333 6.92119 2.1353 6.93649 2.17901 6.93961C2.22273 6.94273 2.26645 6.93353 2.30521 6.91307L3.97235 6.03655L5.6395 6.91307C5.68501 6.9373 5.73787 6.94537 5.78852 6.93656C5.91626 6.91454 6.00215 6.79341 5.98012 6.66568L5.66152 4.80913L7.01007 3.49435C7.04677 3.45838 7.071 3.4114 7.07834 3.36001C7.09816 3.23155 7.0086 3.11262 6.88013 3.09353Z" fill="#FEA250"/>
</g>
<defs>
<clipPath id="clip0_643_2434">
<rect width="7.51721" height="7.51721" fill="white" transform="translate(0.214294 0.501465)"/>
</clipPath>
</defs>
</svg>
