<svg width="12" height="12" viewBox="0 0 12 12" fill="none" xmlns="http://www.w3.org/2000/svg">
<path d="M9.49443 4.79543C9.49443 4.36354 9.40936 3.93588 9.24409 3.53687C9.07881 3.13786 8.83656 2.77531 8.53117 2.46991C8.22578 2.16452 7.86322 1.92227 7.46421 1.757C7.0652 1.59172 6.63754 1.50665 6.20565 1.50665C5.77376 1.50665 5.3461 1.59172 4.94709 1.757C4.54807 1.92227 4.18552 2.16452 3.88013 2.46991C3.57474 2.77531 3.33249 3.13786 3.16721 3.53687C3.00194 3.93588 2.91687 4.36354 2.91687 4.79543C2.91687 5.44708 3.1095 6.05316 3.43603 6.56433H3.43227C4.54106 8.30033 6.20565 10.9032 6.20565 10.9032L8.97903 6.56433H8.97574C9.31421 6.03642 9.49422 5.42253 9.49443 4.79543ZM6.20565 6.20491C5.83183 6.20491 5.47333 6.05641 5.209 5.79208C4.94467 5.52776 4.79617 5.16925 4.79617 4.79543C4.79617 4.42162 4.94467 4.06311 5.209 3.79878C5.47333 3.53445 5.83183 3.38596 6.20565 3.38596C6.57947 3.38596 6.93797 3.53445 7.2023 3.79878C7.46663 4.06311 7.61513 4.42162 7.61513 4.79543C7.61513 5.16925 7.46663 5.52776 7.2023 5.79208C6.93797 6.05641 6.57947 6.20491 6.20565 6.20491Z" fill="#F53838"/>
</svg>
