<svg width="17" height="18" viewBox="0 0 17 18" fill="none" xmlns="http://www.w3.org/2000/svg">
<path d="M15.1076 6.90339L15.0973 6.89316L15.0954 6.89094L8.69598 0.491333L2.2966 6.89077L2.29471 6.89299L2.28415 6.90322C1.30559 7.88727 0.684042 9.17018 0.518303 10.548C0.352563 11.9259 0.652147 13.3196 1.36943 14.5077C2.08671 15.6958 3.18052 16.61 4.477 17.1049C5.77346 17.5999 7.19818 17.6473 8.52467 17.2396C8.63629 17.2054 8.7556 17.2054 8.86723 17.2396C10.1936 17.6472 11.6182 17.5997 12.9146 17.1047C14.211 16.6097 15.3047 15.6955 16.022 14.5075C16.7392 13.3196 17.0388 11.9259 16.8731 10.5481C16.7075 9.17035 16.086 7.88744 15.1076 6.90339ZM4.57214 11.1234C4.54098 11.1546 4.51628 11.1916 4.49943 11.2322C4.48257 11.2729 4.4739 11.3165 4.47391 11.3606C4.48529 12.49 4.80449 13.595 5.39715 14.5565C5.41061 14.5784 5.41684 14.6039 5.41493 14.6294C5.41302 14.655 5.40308 14.6792 5.38652 14.6988C5.36997 14.7184 5.34765 14.7322 5.32276 14.7383C5.29787 14.7444 5.27169 14.7425 5.24796 14.7329C4.80241 14.5455 4.39765 14.273 4.05632 13.9309C3.35682 13.2312 2.96358 12.2825 2.96294 11.2932C2.9623 10.3039 3.35434 9.3547 4.05294 8.65421L8.69598 4.01161L13.3388 8.65421C14.0375 9.35462 14.4297 10.3038 14.429 11.2932C14.4284 12.2825 14.0351 13.2312 13.3356 13.9309C12.9942 14.273 12.5895 14.5455 12.144 14.7329C12.1202 14.7425 12.094 14.7444 12.0692 14.7383C12.0443 14.7322 12.022 14.7183 12.0054 14.6988C11.9888 14.6792 11.9788 14.655 11.9769 14.6293C11.975 14.6038 11.9812 14.5783 11.9947 14.5565C12.5875 13.595 12.9069 12.49 12.9184 11.3606C12.9184 11.3165 12.9097 11.2729 12.8927 11.2321C12.8758 11.1914 12.851 11.1545 12.8198 11.1233L10.6237 8.79397C10.6018 8.77571 10.5743 8.76571 10.5458 8.76571C10.5174 8.76571 10.4898 8.77571 10.4679 8.79397C10.4461 8.81215 10.4313 8.83751 10.4262 8.86553C10.4211 8.89354 10.426 8.92238 10.44 8.94716C11.2929 10.4906 10.5595 12.7076 9.33641 13.9309L9.32996 13.9373C9.16115 14.1043 8.93325 14.1979 8.69581 14.1978C8.45834 14.1978 8.2305 14.104 8.06181 13.9369L8.05587 13.9309C6.83233 12.7076 6.09928 10.4909 6.95233 8.9475C6.96636 8.92271 6.97125 8.89387 6.96614 8.86586C6.96104 8.83784 6.94628 8.81248 6.92442 8.7943C6.90257 8.77604 6.87501 8.76604 6.84654 8.76604C6.81808 8.76604 6.79051 8.77604 6.76865 8.7943L4.57214 11.1234Z" fill="#F53838"/>
</svg>
