<svg width="12" height="12" viewBox="0 0 12 12" fill="none" xmlns="http://www.w3.org/2000/svg">
<path d="M9.88801 1.97647H2.3708C2.12159 1.97647 1.88259 2.07547 1.70637 2.25169C1.53015 2.42791 1.43115 2.66691 1.43115 2.91612V4.79542C1.43115 5.04464 1.53015 5.28364 1.70637 5.45986C1.88259 5.63608 2.12159 5.73508 2.3708 5.73508H9.88801C10.1372 5.73508 10.3762 5.63608 10.5524 5.45986C10.7287 5.28364 10.8277 5.04464 10.8277 4.79542V2.91612C10.8277 2.66691 10.7287 2.42791 10.5524 2.25169C10.3762 2.07547 10.1372 1.97647 9.88801 1.97647ZM7.53889 3.85577C7.53889 4.11525 7.32854 4.3256 7.06906 4.3256C6.80958 4.3256 6.59924 4.11525 6.59924 3.85577C6.59924 3.5963 6.80958 3.38595 7.06906 3.38595C7.32854 3.38595 7.53889 3.5963 7.53889 3.85577ZM9.41819 3.85577C9.41819 4.11525 9.20784 4.3256 8.94836 4.3256C8.68889 4.3256 8.47854 4.11525 8.47854 3.85577C8.47854 3.5963 8.68889 3.38595 8.94836 3.38595C9.20784 3.38595 9.41819 3.5963 9.41819 3.85577ZM9.88801 6.67473H2.3708C2.12159 6.67473 1.88259 6.77373 1.70637 6.94994C1.53015 7.12616 1.43115 7.36517 1.43115 7.61438V9.49368C1.43115 9.74289 1.53015 9.9819 1.70637 10.1581C1.88259 10.3343 2.12159 10.4333 2.3708 10.4333H9.88801C10.1372 10.4333 10.3762 10.3343 10.5524 10.1581C10.7287 9.9819 10.8277 9.74289 10.8277 9.49368V7.61438C10.8277 7.36517 10.7287 7.12616 10.5524 6.94994C10.3762 6.77373 10.1372 6.67473 9.88801 6.67473ZM7.53889 8.55403C7.53889 8.81351 7.32854 9.02386 7.06906 9.02386C6.80958 9.02386 6.59924 8.81351 6.59924 8.55403C6.59924 8.29455 6.80958 8.0842 7.06906 8.0842C7.32854 8.0842 7.53889 8.29455 7.53889 8.55403ZM9.41819 8.55403C9.41819 8.81351 9.20784 9.02386 8.94836 9.02386C8.68889 9.02386 8.47854 8.81351 8.47854 8.55403C8.47854 8.29455 8.68889 8.0842 8.94836 8.0842C9.20784 8.0842 9.41819 8.29455 9.41819 8.55403Z" fill="#F53838"/>
</svg>
