<svg width="12" height="12" viewBox="0 0 12 12" fill="none" xmlns="http://www.w3.org/2000/svg">
<path fill-rule="evenodd" clip-rule="evenodd" d="M6.14844 5.64111C6.59702 5.64111 7.02723 5.46291 7.34442 5.14571C7.66161 4.82852 7.83981 4.39831 7.83981 3.94973C7.83981 3.50115 7.66161 3.07095 7.34442 2.75375C7.02723 2.43656 6.59702 2.25836 6.14844 2.25836C5.69986 2.25836 5.26965 2.43656 4.95246 2.75375C4.63527 3.07095 4.45707 3.50115 4.45707 3.94973C4.45707 4.39831 4.63527 4.82852 4.95246 5.14571C5.26965 5.46291 5.69986 5.64111 6.14844 5.64111ZM3.7517 10.7152C2.89577 10.7152 2.17477 9.99572 2.50232 9.20495C2.70065 8.72613 2.99135 8.29107 3.35782 7.9246C3.72429 7.55813 4.15935 7.26743 4.63817 7.0691C5.11698 6.87077 5.63017 6.76869 6.14844 6.76869C6.66671 6.76869 7.1799 6.87077 7.65871 7.0691C8.13753 7.26743 8.57259 7.55813 8.93906 7.9246C9.30553 8.29107 9.59623 8.72613 9.79456 9.20495C10.1221 9.99572 9.40111 10.7152 8.54518 10.7152H3.7517Z" fill="#F53838"/>
</svg>
